<mxfile host="app.diagrams.net" modified="2024-05-27T21:07:35.462Z" agent="Mozilla/5.0 (Macintosh; Intel Mac OS X 10_15_7) AppleWebKit/605.1.15 (KHTML, like Gecko) Version/15.6 Safari/605.1.15" version="24.3.0" etag="3yBorCIZcQS58hO6P33Q" type="github">
  <diagram name="Page-1" id="G37aI_UpX-adbAZ7C5IJ">
    <mxGraphModel>
      <root>
        <mxCell id="0" />
        <mxCell id="1" parent="0" />
      </root>
    </mxGraphModel>
  </diagram>
</mxfile>
